<svg viewBox="0 0 257 242" fill="none">
              <path
                d="M182.418 202.418C170.673 214.163 156.213 222.829 140.319 227.651C124.424 232.472 107.586 233.3 91.2959 230.059C75.0054 226.819 59.7656 219.611 46.9263 209.074C34.0869 198.537 24.0443 184.996 17.6882 169.651C11.332 154.306 8.85832 137.63 10.4864 121.1C12.1144 104.571 17.7938 88.6977 27.0216 74.8873C36.2494 61.077 48.7407 49.7556 63.389 41.9259C78.0373 34.0962 94.3905 30 111 30L111 131L182.418 202.418Z"
                stroke="currentColor"
                stroke-width="20"
                stroke-linecap="round"
                stroke-linejoin="round"
              />
              <path
                d="M146.5 10C157.597 10 168.585 12.1986 178.837 16.4702C189.089 20.7419 198.404 27.0029 206.251 34.8959C214.097 42.7889 220.321 52.1592 224.568 62.4719C228.814 72.7846 231 83.8377 231 95L146.5 95L146.5 10Z"
                stroke="currentColor"
                stroke-width="20"
                stroke-linecap="round"
                stroke-linejoin="round"
              />
              <path
                d="M247 131.5C247 142.859 244.776 154.107 240.454 164.602C236.132 175.097 229.797 184.632 221.811 192.665L161 131.5H247Z"
                stroke="currentColor"
                stroke-width="20"
                stroke-linecap="round"
                stroke-linejoin="round"
              />
            </svg>